<mxfile host="Electron" agent="Mozilla/5.0 (Windows NT 10.0; Win64; x64) AppleWebKit/537.36 (KHTML, like Gecko) draw.io/28.2.5 Chrome/138.0.7204.251 Electron/37.6.1 Safari/537.36" version="28.2.5">
  <diagram name="Страница — 1" id="XPojqk11kh-hMMRPMYDt">
    <mxGraphModel dx="1959" dy="2596" grid="1" gridSize="10" guides="1" tooltips="1" connect="1" arrows="1" fold="1" page="1" pageScale="1" pageWidth="827" pageHeight="1169" math="0" shadow="0">
      <root>
        <mxCell id="0" />
        <mxCell id="1" parent="0" />
        <mxCell id="gBNl9B6n9AVLdsaari7B-1" value="&lt;p style=&quot;margin:0px;margin-top:4px;text-align:center;&quot;&gt;&lt;/p&gt;&lt;div style=&quot;text-align: center;&quot;&gt;&lt;font style=&quot;color: rgb(0, 153, 0);&quot;&gt;&lt;b style=&quot;&quot;&gt;Aircraft&lt;/b&gt;&lt;/font&gt;&lt;/div&gt;&lt;p&gt;&lt;/p&gt;&lt;hr size=&quot;1&quot; style=&quot;border-style:solid;&quot;&gt;&lt;p style=&quot;margin:0px;margin-left:4px;&quot;&gt;&lt;font style=&quot;color: rgb(0, 153, 0);&quot;&gt;- registrationNumber: String&lt;br&gt;- type: AircraftType&lt;/font&gt;&lt;/p&gt;&lt;p style=&quot;margin:0px;margin-left:4px;&quot;&gt;&lt;font style=&quot;color: rgb(0, 153, 0);&quot;&gt;- model: String&lt;br&gt;&lt;/font&gt;&lt;/p&gt;&lt;p style=&quot;margin:0px;margin-left:4px;&quot;&gt;&lt;font style=&quot;color: rgb(0, 153, 0);&quot;&gt;- passengerCapacity: int&lt;/font&gt;&lt;/p&gt;&lt;p style=&quot;margin:0px;margin-left:4px;&quot;&gt;&lt;font style=&quot;color: rgb(0, 153, 0);&quot;&gt;- fuelCapacity: double&lt;/font&gt;&lt;/p&gt;&lt;p style=&quot;margin:0px;margin-left:4px;&quot;&gt;&lt;font style=&quot;color: rgb(0, 153, 0);&quot;&gt;- lastMaintenance: Date&lt;/font&gt;&lt;/p&gt;&lt;hr size=&quot;1&quot; style=&quot;border-style:solid;&quot;&gt;&lt;p style=&quot;margin:0px;margin-left:4px;&quot;&gt;&lt;font style=&quot;color: rgb(0, 153, 0);&quot;&gt;+ getInfo(): String&lt;/font&gt;&lt;/p&gt;&lt;p style=&quot;margin:0px;margin-left:4px;&quot;&gt;&lt;font style=&quot;color: rgb(0, 153, 0);&quot;&gt;+ needsMaintenance(): boolean&lt;/font&gt;&lt;/p&gt;&lt;p style=&quot;margin:0px;margin-left:4px;&quot;&gt;&lt;font style=&quot;color: rgb(0, 153, 0);&quot;&gt;+ calculateRange(): double&lt;/font&gt;&lt;/p&gt;" style="verticalAlign=top;align=left;overflow=fill;html=1;whiteSpace=wrap;strokeColor=#009900;" parent="1" vertex="1">
          <mxGeometry x="-620" y="80" width="190" height="190" as="geometry" />
        </mxCell>
        <mxCell id="5OFmX54vdf8DluDnAx88-1" value="&lt;p style=&quot;margin:0px;margin-top:4px;text-align:center;&quot;&gt;&lt;/p&gt;&lt;div style=&quot;text-align: center;&quot;&gt;&lt;font style=&quot;color: rgb(0, 153, 0);&quot;&gt;&lt;b style=&quot;&quot;&gt;Flight&lt;/b&gt;&lt;/font&gt;&lt;/div&gt;&lt;p&gt;&lt;/p&gt;&lt;hr size=&quot;1&quot; style=&quot;border-style:solid;&quot;&gt;&lt;p style=&quot;margin:0px;margin-left:4px;&quot;&gt;&lt;font style=&quot;color: rgb(0, 153, 0);&quot;&gt;- flightNumber: String&lt;br&gt;- aircraft: Aircraft&lt;/font&gt;&lt;/p&gt;&lt;p style=&quot;margin:0px;margin-left:4px;&quot;&gt;&lt;font style=&quot;color: rgb(0, 153, 0);&quot;&gt;- departureAirport: String&lt;br&gt;&lt;/font&gt;&lt;/p&gt;&lt;p style=&quot;margin:0px;margin-left:4px;&quot;&gt;&lt;font style=&quot;color: rgb(0, 153, 0);&quot;&gt;- arrivalAirport: String&lt;/font&gt;&lt;/p&gt;&lt;p style=&quot;margin:0px;margin-left:4px;&quot;&gt;&lt;font style=&quot;color: rgb(0, 153, 0);&quot;&gt;- departureTime: DateTime&lt;/font&gt;&lt;/p&gt;&lt;p style=&quot;margin:0px;margin-left:4px;&quot;&gt;&lt;font style=&quot;color: rgb(0, 153, 0);&quot;&gt;- arrivalTime: DateTime&lt;/font&gt;&lt;/p&gt;&lt;p style=&quot;margin:0px;margin-left:4px;&quot;&gt;&lt;font style=&quot;color: rgb(0, 153, 0);&quot;&gt;- status: FlightStatus&lt;/font&gt;&lt;/p&gt;&lt;p style=&quot;margin:0px;margin-left:4px;&quot;&gt;&lt;font style=&quot;color: rgb(0, 153, 0);&quot;&gt;- gate: String&lt;/font&gt;&lt;/p&gt;&lt;hr size=&quot;1&quot; style=&quot;border-style:solid;&quot;&gt;&lt;p style=&quot;margin:0px;margin-left:4px;&quot;&gt;&lt;font style=&quot;color: rgb(0, 153, 0);&quot;&gt;+ calculateDuration(): Duration&lt;/font&gt;&lt;/p&gt;&lt;p style=&quot;margin:0px;margin-left:4px;&quot;&gt;&lt;font style=&quot;color: rgb(0, 153, 0);&quot;&gt;+ updateStatus(FlightStatus)&lt;/font&gt;&lt;/p&gt;&lt;p style=&quot;margin:0px;margin-left:4px;&quot;&gt;&lt;font style=&quot;color: rgb(0, 153, 0);&quot;&gt;+ delayFlight(minutes: int)&lt;/font&gt;&lt;/p&gt;&lt;p style=&quot;margin:0px;margin-left:4px;&quot;&gt;&lt;font style=&quot;color: rgb(0, 153, 0);&quot;&gt;+ getPassengerCount(): int&lt;/font&gt;&lt;/p&gt;" style="verticalAlign=top;align=left;overflow=fill;html=1;whiteSpace=wrap;strokeColor=#009900;" vertex="1" parent="1">
          <mxGeometry x="-366" y="60" width="190" height="230" as="geometry" />
        </mxCell>
        <mxCell id="5OFmX54vdf8DluDnAx88-2" value="&lt;p style=&quot;margin:0px;margin-top:4px;text-align:center;&quot;&gt;&lt;/p&gt;&lt;div style=&quot;text-align: center;&quot;&gt;&lt;font style=&quot;color: rgb(255, 128, 0);&quot;&gt;&lt;span style=&quot;background-color: transparent; text-align: left;&quot;&gt;«enumeration&lt;/span&gt;&lt;span style=&quot;background-color: transparent; text-align: left;&quot;&gt;»&lt;/span&gt;&lt;/font&gt;&lt;/div&gt;&lt;div style=&quot;text-align: center;&quot;&gt;&lt;b style=&quot;background-color: transparent;&quot;&gt;&lt;font style=&quot;color: rgb(255, 128, 0);&quot;&gt;FlightStatus&lt;/font&gt;&lt;/b&gt;&lt;/div&gt;&lt;p&gt;&lt;/p&gt;&lt;hr size=&quot;1&quot; style=&quot;border-style:solid;&quot;&gt;&lt;p style=&quot;margin:0px;margin-left:4px;&quot;&gt;&lt;font style=&quot;color: rgb(255, 128, 0);&quot;&gt;&amp;nbsp;SCHEDULED&lt;br&gt;&lt;/font&gt;&lt;/p&gt;&lt;p style=&quot;margin:0px;margin-left:4px;&quot;&gt;&lt;font style=&quot;color: rgb(255, 128, 0);&quot;&gt;&amp;nbsp;BOARDING&lt;br&gt;&amp;nbsp;DEPARTED&lt;br&gt;&amp;nbsp;IN_AIR&lt;br&gt;&amp;nbsp;LANDED&lt;br&gt;&amp;nbsp;CANCELLED&amp;nbsp;&lt;br&gt;&lt;/font&gt;&lt;/p&gt;&lt;hr size=&quot;1&quot; style=&quot;border-style:solid;&quot;&gt;&lt;p style=&quot;margin:0px;margin-left:4px;&quot;&gt;&lt;br&gt;&lt;/p&gt;" style="verticalAlign=top;align=left;overflow=fill;html=1;whiteSpace=wrap;strokeColor=#FF8000;" vertex="1" parent="1">
          <mxGeometry x="-110" y="95" width="90" height="160" as="geometry" />
        </mxCell>
        <mxCell id="5OFmX54vdf8DluDnAx88-3" value="" style="endArrow=diamondThin;endFill=1;endSize=24;html=1;rounded=0;" edge="1" parent="1" source="5OFmX54vdf8DluDnAx88-2" target="5OFmX54vdf8DluDnAx88-1">
          <mxGeometry width="160" relative="1" as="geometry">
            <mxPoint x="-210" y="180" as="sourcePoint" />
            <mxPoint x="-130" y="270" as="targetPoint" />
          </mxGeometry>
        </mxCell>
        <mxCell id="5OFmX54vdf8DluDnAx88-4" value="" style="endArrow=diamondThin;endFill=0;endSize=24;html=1;rounded=0;" edge="1" parent="1" source="gBNl9B6n9AVLdsaari7B-1" target="5OFmX54vdf8DluDnAx88-1">
          <mxGeometry width="160" relative="1" as="geometry">
            <mxPoint x="-520" y="180" as="sourcePoint" />
            <mxPoint x="-360" y="180" as="targetPoint" />
          </mxGeometry>
        </mxCell>
        <mxCell id="5OFmX54vdf8DluDnAx88-5" value="&lt;p style=&quot;margin:0px;margin-top:4px;text-align:center;&quot;&gt;&lt;/p&gt;&lt;div style=&quot;text-align: center;&quot;&gt;&lt;font color=&quot;#009900&quot;&gt;&lt;b&gt;Passenger&lt;/b&gt;&lt;/font&gt;&lt;/div&gt;&lt;p&gt;&lt;/p&gt;&lt;hr size=&quot;1&quot; style=&quot;border-style:solid;&quot;&gt;&lt;p style=&quot;margin:0px;margin-left:4px;&quot;&gt;&lt;font style=&quot;color: rgb(0, 153, 0);&quot;&gt;- passengerId: String&lt;br&gt;- firstName: String&lt;/font&gt;&lt;/p&gt;&lt;p style=&quot;margin:0px;margin-left:4px;&quot;&gt;&lt;font style=&quot;color: rgb(0, 153, 0);&quot;&gt;- lastName: String&lt;br&gt;&lt;/font&gt;&lt;/p&gt;&lt;p style=&quot;margin:0px;margin-left:4px;&quot;&gt;&lt;font style=&quot;color: rgb(0, 153, 0);&quot;&gt;- passportNumber: String&lt;/font&gt;&lt;/p&gt;&lt;p style=&quot;margin:0px;margin-left:4px;&quot;&gt;&lt;font style=&quot;color: rgb(0, 153, 0);&quot;&gt;- departureTime: DateTime&lt;/font&gt;&lt;/p&gt;&lt;p style=&quot;margin:0px;margin-left:4px;&quot;&gt;&lt;font style=&quot;color: rgb(0, 153, 0);&quot;&gt;- dateOfBirth: Date&lt;/font&gt;&lt;/p&gt;&lt;p style=&quot;margin:0px;margin-left:4px;&quot;&gt;&lt;font style=&quot;color: rgb(0, 153, 0);&quot;&gt;- nationality: String&lt;br&gt;&lt;/font&gt;&lt;/p&gt;&lt;hr size=&quot;1&quot; style=&quot;border-style:solid;&quot;&gt;&lt;p style=&quot;margin:0px;margin-left:4px;&quot;&gt;&lt;font style=&quot;color: rgb(0, 153, 0);&quot;&gt;+ getFullName(): String&lt;/font&gt;&lt;/p&gt;&lt;p style=&quot;margin:0px;margin-left:4px;&quot;&gt;&lt;font style=&quot;color: rgb(0, 153, 0);&quot;&gt;+ validatePassport(): boolean&lt;/font&gt;&lt;/p&gt;&lt;p style=&quot;margin:0px;margin-left:4px;&quot;&gt;&lt;font style=&quot;color: rgb(0, 153, 0);&quot;&gt;+ calculateAge(): int&lt;/font&gt;&lt;/p&gt;&lt;p style=&quot;margin:0px;margin-left:4px;&quot;&gt;&lt;font style=&quot;color: rgb(0, 153, 0);&quot;&gt;&lt;br&gt;&lt;/font&gt;&lt;/p&gt;" style="verticalAlign=top;align=left;overflow=fill;html=1;whiteSpace=wrap;strokeColor=#009900;" vertex="1" parent="1">
          <mxGeometry x="-620" y="360" width="190" height="200" as="geometry" />
        </mxCell>
        <mxCell id="5OFmX54vdf8DluDnAx88-6" value="&lt;p style=&quot;margin:0px;margin-top:4px;text-align:center;&quot;&gt;&lt;/p&gt;&lt;div style=&quot;text-align: center;&quot;&gt;&lt;font color=&quot;#009900&quot;&gt;&lt;b&gt;BoardingPass&lt;/b&gt;&lt;/font&gt;&lt;/div&gt;&lt;p&gt;&lt;/p&gt;&lt;hr size=&quot;1&quot; style=&quot;border-style:solid;&quot;&gt;&lt;p style=&quot;margin:0px;margin-left:4px;&quot;&gt;&lt;font style=&quot;color: rgb(0, 153, 0);&quot;&gt;- boardingPassId: String&lt;br&gt;- passenger: Passenger&lt;/font&gt;&lt;/p&gt;&lt;p style=&quot;margin:0px;margin-left:4px;&quot;&gt;&lt;font style=&quot;color: rgb(0, 153, 0);&quot;&gt;- flight: Flight&lt;br&gt;&lt;/font&gt;&lt;/p&gt;&lt;p style=&quot;margin:0px;margin-left:4px;&quot;&gt;&lt;font style=&quot;color: rgb(0, 153, 0);&quot;&gt;- seatNumber: String&lt;/font&gt;&lt;/p&gt;&lt;p style=&quot;margin:0px;margin-left:4px;&quot;&gt;&lt;font style=&quot;color: rgb(0, 153, 0);&quot;&gt;- seatClass: SeatClass&lt;/font&gt;&lt;/p&gt;&lt;p style=&quot;margin:0px;margin-left:4px;&quot;&gt;&lt;font style=&quot;color: rgb(0, 153, 0);&quot;&gt;- boardingGroup: String&lt;/font&gt;&lt;/p&gt;&lt;p style=&quot;margin:0px;margin-left:4px;&quot;&gt;&lt;font style=&quot;color: rgb(0, 153, 0);&quot;&gt;- boardingTime: DateTime&lt;br&gt;&lt;/font&gt;&lt;/p&gt;&lt;hr size=&quot;1&quot; style=&quot;border-style:solid;&quot;&gt;&lt;p style=&quot;margin:0px;margin-left:4px;&quot;&gt;&lt;font style=&quot;color: rgb(0, 153, 0);&quot;&gt;+ validate(): boolean&lt;/font&gt;&lt;/p&gt;&lt;p style=&quot;margin:0px;margin-left:4px;&quot;&gt;&lt;font style=&quot;color: rgb(0, 153, 0);&quot;&gt;+ scan()&lt;/font&gt;&lt;/p&gt;&lt;p style=&quot;margin:0px;margin-left:4px;&quot;&gt;&lt;font style=&quot;color: rgb(0, 153, 0);&quot;&gt;+ getBoardingInfo(): String&lt;/font&gt;&lt;/p&gt;&lt;p style=&quot;margin:0px;margin-left:4px;&quot;&gt;&lt;font style=&quot;color: rgb(0, 153, 0);&quot;&gt;&lt;br&gt;&lt;/font&gt;&lt;/p&gt;" style="verticalAlign=top;align=left;overflow=fill;html=1;whiteSpace=wrap;strokeColor=#009900;" vertex="1" parent="1">
          <mxGeometry x="-366" y="360" width="190" height="200" as="geometry" />
        </mxCell>
        <mxCell id="5OFmX54vdf8DluDnAx88-7" value="&lt;p style=&quot;margin:0px;margin-top:4px;text-align:center;&quot;&gt;&lt;/p&gt;&lt;div style=&quot;text-align: center;&quot;&gt;&lt;font style=&quot;color: rgb(255, 128, 0);&quot;&gt;&lt;span style=&quot;background-color: transparent; text-align: left;&quot;&gt;«enumeration&lt;/span&gt;&lt;span style=&quot;background-color: transparent; text-align: left;&quot;&gt;»&lt;/span&gt;&lt;/font&gt;&lt;/div&gt;&lt;div style=&quot;text-align: center;&quot;&gt;&lt;b style=&quot;background-color: transparent;&quot;&gt;&lt;font style=&quot;color: rgb(255, 128, 0);&quot;&gt;SeatClass&lt;/font&gt;&lt;/b&gt;&lt;/div&gt;&lt;p&gt;&lt;/p&gt;&lt;hr size=&quot;1&quot; style=&quot;border-style:solid;&quot;&gt;&lt;p style=&quot;margin:0px;margin-left:4px;&quot;&gt;&lt;font style=&quot;color: rgb(255, 128, 0);&quot;&gt;&amp;nbsp;ECONOMY&lt;br&gt;&lt;/font&gt;&lt;/p&gt;&lt;p style=&quot;margin:0px;margin-left:4px;&quot;&gt;&lt;font style=&quot;color: rgb(255, 128, 0);&quot;&gt;&amp;nbsp;PREMIUM_ECONOMY&lt;br&gt;&amp;nbsp;BUSINESS&lt;br&gt;&amp;nbsp;FIRST&lt;br&gt;&lt;/font&gt;&lt;/p&gt;&lt;hr size=&quot;1&quot; style=&quot;border-style:solid;&quot;&gt;&lt;p style=&quot;margin:0px;margin-left:4px;&quot;&gt;&lt;br&gt;&lt;/p&gt;" style="verticalAlign=top;align=left;overflow=fill;html=1;whiteSpace=wrap;strokeColor=#FF8000;" vertex="1" parent="1">
          <mxGeometry x="-110" y="390" width="140" height="140" as="geometry" />
        </mxCell>
        <mxCell id="5OFmX54vdf8DluDnAx88-8" value="" style="endArrow=diamondThin;endFill=1;endSize=24;html=1;rounded=0;" edge="1" parent="1" source="5OFmX54vdf8DluDnAx88-7" target="5OFmX54vdf8DluDnAx88-6">
          <mxGeometry width="160" relative="1" as="geometry">
            <mxPoint x="-470" y="400" as="sourcePoint" />
            <mxPoint x="-400" y="450" as="targetPoint" />
          </mxGeometry>
        </mxCell>
        <mxCell id="5OFmX54vdf8DluDnAx88-9" value="" style="endArrow=diamondThin;endFill=0;endSize=24;html=1;rounded=0;" edge="1" parent="1" source="5OFmX54vdf8DluDnAx88-1" target="5OFmX54vdf8DluDnAx88-6">
          <mxGeometry width="160" relative="1" as="geometry">
            <mxPoint x="-470" y="400" as="sourcePoint" />
            <mxPoint x="-310" y="400" as="targetPoint" />
          </mxGeometry>
        </mxCell>
        <mxCell id="5OFmX54vdf8DluDnAx88-10" value="" style="endArrow=diamondThin;endFill=0;endSize=24;html=1;rounded=0;" edge="1" parent="1" source="5OFmX54vdf8DluDnAx88-5" target="5OFmX54vdf8DluDnAx88-6">
          <mxGeometry width="160" relative="1" as="geometry">
            <mxPoint x="-260" y="400" as="sourcePoint" />
            <mxPoint x="-100" y="400" as="targetPoint" />
          </mxGeometry>
        </mxCell>
        <mxCell id="5OFmX54vdf8DluDnAx88-11" value="&lt;p style=&quot;margin:0px;margin-top:4px;text-align:center;&quot;&gt;&lt;/p&gt;&lt;div style=&quot;text-align: center;&quot;&gt;&lt;font style=&quot;color: rgb(255, 128, 0);&quot;&gt;&lt;span style=&quot;background-color: transparent; text-align: left;&quot;&gt;«enumeration&lt;/span&gt;&lt;span style=&quot;background-color: transparent; text-align: left;&quot;&gt;»&lt;/span&gt;&lt;/font&gt;&lt;/div&gt;&lt;div style=&quot;text-align: center;&quot;&gt;&lt;b style=&quot;background-color: transparent;&quot;&gt;&lt;font style=&quot;color: rgb(255, 128, 0);&quot;&gt;AircraftType&lt;/font&gt;&lt;/b&gt;&lt;/div&gt;&lt;p&gt;&lt;/p&gt;&lt;hr size=&quot;1&quot; style=&quot;border-style:solid;&quot;&gt;&lt;p style=&quot;margin:0px;margin-left:4px;&quot;&gt;&lt;font style=&quot;color: rgb(255, 128, 0);&quot;&gt;&amp;nbsp;BOEING_737&lt;br&gt;&lt;/font&gt;&lt;/p&gt;&lt;p style=&quot;margin:0px;margin-left:4px;&quot;&gt;&lt;font style=&quot;color: rgb(255, 128, 0);&quot;&gt;&amp;nbsp;AIRBUS_A320&lt;br&gt;&amp;nbsp;BOEING_777&lt;br&gt;&amp;nbsp;AIRBUS_A380&lt;/font&gt;&lt;/p&gt;&lt;p style=&quot;margin:0px;margin-left:4px;&quot;&gt;&lt;font style=&quot;color: rgb(255, 128, 0);&quot;&gt;&amp;nbsp;EMBRAER_190&lt;/font&gt;&lt;/p&gt;&lt;hr size=&quot;1&quot; style=&quot;border-style:solid;&quot;&gt;&lt;p style=&quot;margin:0px;margin-left:4px;&quot;&gt;&lt;br&gt;&lt;/p&gt;" style="verticalAlign=top;align=left;overflow=fill;html=1;whiteSpace=wrap;strokeColor=#FF8000;" vertex="1" parent="1">
          <mxGeometry x="-820" y="100" width="140" height="155" as="geometry" />
        </mxCell>
        <mxCell id="5OFmX54vdf8DluDnAx88-12" value="" style="endArrow=diamondThin;endFill=1;endSize=24;html=1;rounded=0;" edge="1" parent="1" source="5OFmX54vdf8DluDnAx88-11" target="gBNl9B6n9AVLdsaari7B-1">
          <mxGeometry width="160" relative="1" as="geometry">
            <mxPoint x="-750" y="400" as="sourcePoint" />
            <mxPoint x="-590" y="400" as="targetPoint" />
          </mxGeometry>
        </mxCell>
      </root>
    </mxGraphModel>
  </diagram>
</mxfile>
